<mxfile host="app.diagrams.net" agent="Mozilla/5.0 (Windows NT 10.0; Win64; x64) AppleWebKit/537.36 (KHTML, like Gecko) Chrome/129.0.0.0 Safari/537.36" version="24.7.16">
  <diagram name="PÃ¡gina-1" id="3Pn_IhdiNfXBD3m_dUYP">
    <mxGraphModel grid="1" page="1" gridSize="10" guides="1" tooltips="1" connect="1" arrows="1" fold="1" pageScale="1" pageWidth="827" pageHeight="1169" math="0" shadow="0">
      <root>
        <mxCell id="0" />
        <mxCell id="1" parent="0" />
        <mxCell id="3meBvVVtVwArMSP24UzV-1" value="CATEGORIA DE PRODUCTOS" style="html=1;overflow=block;blockSpacing=1;whiteSpace=wrap;fontSize=16.7;align=center;spacing=3.8;rounded=1;absoluteArcSize=1;arcSize=9;strokeWidth=NaN;lucidId=ggzcbSvZQNbC;" vertex="1" parent="1">
          <mxGeometry x="1290" y="293" width="240" height="67" as="geometry" />
        </mxCell>
        <mxCell id="3meBvVVtVwArMSP24UzV-2" value="" style="html=1;jettySize=18;whiteSpace=wrap;fontSize=13;strokeColor=#5E5E5E;strokeWidth=1.5;rounded=1;arcSize=12;edgeStyle=orthogonalEdgeStyle;startArrow=none;endArrow=block;endFill=1;entryX=0.5;entryY=1.011;entryPerimeter=0;lucidId=khzcaXnZnHce;" edge="1" parent="1" target="3meBvVVtVwArMSP24UzV-3">
          <mxGeometry width="100" height="100" relative="1" as="geometry">
            <Array as="points" />
            <mxPoint x="1410" y="287" as="sourcePoint" />
          </mxGeometry>
        </mxCell>
        <mxCell id="3meBvVVtVwArMSP24UzV-3" value="ID producto" style="html=1;overflow=block;blockSpacing=1;whiteSpace=wrap;ellipse;fontSize=16.7;align=center;spacing=3.8;rounded=1;absoluteArcSize=1;arcSize=9;strokeWidth=NaN;lucidId=khzcTshV-~Wz;" vertex="1" parent="1">
          <mxGeometry x="1320" y="70" width="180" height="67" as="geometry" />
        </mxCell>
        <mxCell id="3meBvVVtVwArMSP24UzV-4" value="" style="html=1;jettySize=18;whiteSpace=wrap;fontSize=13;strokeColor=#5E5E5E;strokeWidth=1.5;rounded=1;arcSize=12;edgeStyle=orthogonalEdgeStyle;startArrow=none;endArrow=block;endFill=1;entryX=0.5;entryY=1.011;entryPerimeter=0;lucidId=Ehzcrhrc7mqJ;" edge="1" parent="1" target="3meBvVVtVwArMSP24UzV-5">
          <mxGeometry width="100" height="100" relative="1" as="geometry">
            <Array as="points" />
            <mxPoint x="1485" y="293" as="sourcePoint" />
          </mxGeometry>
        </mxCell>
        <mxCell id="3meBvVVtVwArMSP24UzV-5" value="Nombre" style="html=1;overflow=block;blockSpacing=1;whiteSpace=wrap;ellipse;fontSize=16.7;align=center;spacing=3.8;rounded=1;absoluteArcSize=1;arcSize=9;strokeWidth=NaN;lucidId=EhzcUl~cL0un;" vertex="1" parent="1">
          <mxGeometry x="1440" y="137" width="180" height="67" as="geometry" />
        </mxCell>
        <mxCell id="3meBvVVtVwArMSP24UzV-7" value="Descripcion" style="html=1;overflow=block;blockSpacing=1;whiteSpace=wrap;ellipse;fontSize=16.7;align=center;spacing=3.8;rounded=1;absoluteArcSize=1;arcSize=9;strokeWidth=NaN;lucidId=khzcTshV-~Wz;" vertex="1" parent="1">
          <mxGeometry x="1200" y="147" width="180" height="67" as="geometry" />
        </mxCell>
        <mxCell id="3meBvVVtVwArMSP24UzV-9" value="" style="html=1;jettySize=18;whiteSpace=wrap;fontSize=13;strokeColor=#5E5E5E;strokeWidth=1.5;rounded=1;arcSize=12;edgeStyle=orthogonalEdgeStyle;startArrow=none;endArrow=block;endFill=1;lucidId=Ehzcrhrc7mqJ;exitX=0.174;exitY=-0.001;exitDx=0;exitDy=0;exitPerimeter=0;" edge="1" parent="1" source="3meBvVVtVwArMSP24UzV-1" target="3meBvVVtVwArMSP24UzV-7">
          <mxGeometry width="100" height="100" relative="1" as="geometry">
            <Array as="points">
              <mxPoint x="1332" y="277" />
              <mxPoint x="1320" y="277" />
              <mxPoint x="1320" y="237" />
              <mxPoint x="1230" y="237" />
            </Array>
            <mxPoint x="1309.31" y="292.99799999999993" as="sourcePoint" />
            <mxPoint x="1230" y="202.39" as="targetPoint" />
          </mxGeometry>
        </mxCell>
        <mxCell id="3meBvVVtVwArMSP24UzV-10" value="&lt;div style=&quot;display: flex; justify-content: flex-start; text-align: left; align-items: baseline; font-size: 0; line-height: 1.25;margin-top: -2px;&quot;&gt;&lt;span&gt;&lt;span style=&quot;font-size:15.2px;font-weight: bold;&quot;&gt;Producto&lt;/span&gt;&lt;span style=&quot;font-size:15.2px;&quot;&gt; &#xa;&lt;/span&gt;&lt;/span&gt;&lt;/div&gt;&lt;div style=&quot;display: flex; justify-content: flex-start; text-align: left; align-items: baseline; font-size: 0; line-height: 1.25;margin-top: -2px;&quot;&gt;&lt;span&gt;&lt;span style=&quot;font-size:15.2px;&quot;&gt;&lt;span style=&quot;font-size:15.2px;&quot;&gt;- Id producto (Categorias de producto tiene: ID DE CATEGORIA, NOMBRE, DESCRIPCION)&#xa;&lt;/span&gt;&lt;/span&gt;&lt;/span&gt;&lt;/div&gt;&lt;div style=&quot;display: flex; justify-content: flex-start; text-align: left; align-items: baseline; font-size: 0; line-height: 1.25;margin-top: -2px;&quot;&gt;&lt;span&gt;&lt;span style=&quot;font-size:15.2px;&quot;&gt;- Nombre &#xa;&lt;/span&gt;&lt;/span&gt;&lt;/div&gt;&lt;div style=&quot;display: flex; justify-content: flex-start; text-align: left; align-items: baseline; font-size: 0; line-height: 1.25;margin-top: -2px;&quot;&gt;&lt;span&gt;&lt;span style=&quot;font-size:15.2px;&quot;&gt;- Precio actual&#xa;&lt;/span&gt;&lt;/span&gt;&lt;/div&gt;&lt;div style=&quot;display: flex; justify-content: flex-start; text-align: left; align-items: baseline; font-size: 0; line-height: 1.25;margin-top: -2px;&quot;&gt;&lt;span&gt;&lt;span style=&quot;font-size:15.2px;&quot;&gt;- Stock&#xa;&lt;/span&gt;&lt;/span&gt;&lt;/div&gt;&lt;div style=&quot;display: flex; justify-content: flex-start; text-align: left; align-items: baseline; font-size: 0; line-height: 1.25;margin-top: -2px;&quot;&gt;&lt;span&gt;&lt;span style=&quot;font-size:15.2px;&quot;&gt;- Nombre del proveedor&lt;/span&gt;&lt;/span&gt;&lt;/div&gt;" style="html=1;overflow=block;blockSpacing=1;whiteSpace=wrap;fontSize=13;spacing=0;strokeColor=#282c33;strokeOpacity=100;fillOpacity=100;rounded=1;absoluteArcSize=1;arcSize=9;fillColor=#ffffff;strokeWidth=1.5;lucidId=wsxc2Z1UNA-Q;" vertex="1" parent="1">
          <mxGeometry x="827" y="10" width="255" height="165" as="geometry" />
        </mxCell>
        <mxCell id="3meBvVVtVwArMSP24UzV-11" value="&amp;nbsp;PRODUCTOS" style="html=1;overflow=block;blockSpacing=1;whiteSpace=wrap;fontSize=16.7;align=center;spacing=3.8;rounded=1;absoluteArcSize=1;arcSize=9;strokeWidth=NaN;lucidId=ggzcbSvZQNbC;" vertex="1" parent="1">
          <mxGeometry x="1150" y="687" width="240" height="67" as="geometry" />
        </mxCell>
        <mxCell id="3meBvVVtVwArMSP24UzV-12" value="" style="html=1;jettySize=18;whiteSpace=wrap;fontSize=13;strokeColor=#5E5E5E;strokeWidth=1.5;rounded=1;arcSize=12;edgeStyle=orthogonalEdgeStyle;startArrow=none;endArrow=block;endFill=1;entryX=0.5;entryY=1.011;entryPerimeter=0;lucidId=khzcaXnZnHce;exitX=0.456;exitY=-0.004;exitDx=0;exitDy=0;exitPerimeter=0;" edge="1" parent="1" source="3meBvVVtVwArMSP24UzV-11" target="3meBvVVtVwArMSP24UzV-13">
          <mxGeometry width="100" height="100" relative="1" as="geometry">
            <Array as="points" />
            <mxPoint x="1260" y="680" as="sourcePoint" />
          </mxGeometry>
        </mxCell>
        <mxCell id="3meBvVVtVwArMSP24UzV-13" value="Precio actual" style="html=1;overflow=block;blockSpacing=1;whiteSpace=wrap;ellipse;fontSize=16.7;align=center;spacing=3.8;rounded=1;absoluteArcSize=1;arcSize=9;strokeWidth=NaN;lucidId=khzcTshV-~Wz;" vertex="1" parent="1">
          <mxGeometry x="1150" y="480" width="180" height="67" as="geometry" />
        </mxCell>
        <mxCell id="3meBvVVtVwArMSP24UzV-14" value="" style="html=1;jettySize=18;whiteSpace=wrap;fontSize=13;strokeColor=#5E5E5E;strokeWidth=1.5;rounded=1;arcSize=12;edgeStyle=orthogonalEdgeStyle;startArrow=none;endArrow=block;endFill=1;entryX=0.5;entryY=1.011;entryPerimeter=0;lucidId=Ehzcrhrc7mqJ;exitX=0.75;exitY=0;exitDx=0;exitDy=0;" edge="1" parent="1" source="3meBvVVtVwArMSP24UzV-11" target="3meBvVVtVwArMSP24UzV-15">
          <mxGeometry width="100" height="100" relative="1" as="geometry">
            <Array as="points" />
            <mxPoint x="1345" y="680" as="sourcePoint" />
          </mxGeometry>
        </mxCell>
        <mxCell id="3meBvVVtVwArMSP24UzV-15" value="Stock" style="html=1;overflow=block;blockSpacing=1;whiteSpace=wrap;ellipse;fontSize=16.7;align=center;spacing=3.8;rounded=1;absoluteArcSize=1;arcSize=9;strokeWidth=NaN;lucidId=EhzcUl~cL0un;" vertex="1" parent="1">
          <mxGeometry x="1250" y="413" width="180" height="67" as="geometry" />
        </mxCell>
        <mxCell id="3meBvVVtVwArMSP24UzV-16" value="Nombre" style="html=1;overflow=block;blockSpacing=1;whiteSpace=wrap;ellipse;fontSize=16.7;align=center;spacing=3.8;rounded=1;absoluteArcSize=1;arcSize=9;strokeWidth=NaN;lucidId=khzcTshV-~Wz;" vertex="1" parent="1">
          <mxGeometry x="1000" y="524" width="180" height="67" as="geometry" />
        </mxCell>
        <mxCell id="3meBvVVtVwArMSP24UzV-17" value="" style="html=1;jettySize=18;whiteSpace=wrap;fontSize=13;strokeColor=#5E5E5E;strokeWidth=1.5;rounded=1;arcSize=12;edgeStyle=orthogonalEdgeStyle;startArrow=none;endArrow=block;endFill=1;lucidId=Ehzcrhrc7mqJ;exitX=0.209;exitY=0.001;exitDx=0;exitDy=0;exitPerimeter=0;" edge="1" parent="1" source="3meBvVVtVwArMSP24UzV-11" target="3meBvVVtVwArMSP24UzV-16">
          <mxGeometry width="100" height="100" relative="1" as="geometry">
            <Array as="points">
              <mxPoint x="1170" y="687" />
              <mxPoint x="1170" y="624" />
              <mxPoint x="1090" y="624" />
            </Array>
            <mxPoint x="1192" y="680" as="sourcePoint" />
            <mxPoint x="1090" y="592.4694257487477" as="targetPoint" />
          </mxGeometry>
        </mxCell>
        <mxCell id="3meBvVVtVwArMSP24UzV-18" value="" style="html=1;jettySize=18;whiteSpace=wrap;fontSize=13;strokeColor=#5E5E5E;strokeWidth=1.5;rounded=1;arcSize=12;edgeStyle=orthogonalEdgeStyle;startArrow=none;endArrow=block;endFill=1;entryX=0.5;entryY=1.011;entryPerimeter=0;lucidId=Ehzcrhrc7mqJ;exitX=0.931;exitY=-0.016;exitDx=0;exitDy=0;exitPerimeter=0;" edge="1" parent="1" source="3meBvVVtVwArMSP24UzV-11" target="3meBvVVtVwArMSP24UzV-19">
          <mxGeometry width="100" height="100" relative="1" as="geometry">
            <Array as="points" />
            <mxPoint x="1470" y="754" as="sourcePoint" />
          </mxGeometry>
        </mxCell>
        <mxCell id="3meBvVVtVwArMSP24UzV-19" value="Nombre del proveedor" style="html=1;overflow=block;blockSpacing=1;whiteSpace=wrap;ellipse;fontSize=16.7;align=center;spacing=3.8;rounded=1;absoluteArcSize=1;arcSize=9;strokeWidth=NaN;lucidId=EhzcUl~cL0un;" vertex="1" parent="1">
          <mxGeometry x="1350" y="500" width="180" height="67" as="geometry" />
        </mxCell>
      </root>
    </mxGraphModel>
  </diagram>
</mxfile>
